<?xml version="1.0" encoding="UTF-8"?>
<svg xmlns="http://www.w3.org/2000/svg" xmlns:xlink="http://www.w3.org/1999/xlink" width="625pt" height="186.2pt" viewBox="0 0 625 186.2" version="1.1">
<defs>
<clipPath id="clip1">
  <path d="M 0 0 L 625 0 L 625 186.199219 L 0 186.199219 Z M 0 0 "/>
</clipPath>
</defs>
<g id="surface1">
<g clip-path="url(#clip1)" clip-rule="nonzero">
<path style=" stroke:none;fill-rule:evenodd;fill:rgb(98.826599%,78.125%,0%);fill-opacity:1;" d="M 0.0390625 186.152344 L 625.011719 186.152344 L 625.011719 -0.0078125 L 0.0390625 -0.0078125 Z M 0.0390625 186.152344 "/>
</g>
<path style=" stroke:none;fill-rule:evenodd;fill:rgb(0%,56.443787%,20.776367%);fill-opacity:1;" d="M 387.316406 76.449219 L 460.460938 76.449219 L 460.460938 16.765625 L 387.316406 16.765625 Z M 387.316406 76.449219 "/>
<path style=" stroke:none;fill-rule:evenodd;fill:rgb(89.0625%,0%,8.616638%);fill-opacity:1;" d="M 69.113281 69.9375 L 144.71875 69.9375 L 144.71875 16.765625 L 69.113281 16.765625 Z M 69.113281 69.9375 "/>
<path style=" stroke:none;fill-rule:evenodd;fill:rgb(0%,49.804688%,75.78125%);fill-opacity:1;" d="M 173.796875 69.9375 L 226.136719 69.9375 L 226.136719 27.566406 L 173.796875 27.566406 Z M 173.796875 69.9375 "/>
<path style=" stroke:none;fill-rule:evenodd;fill:rgb(89.0625%,0%,8.616638%);fill-opacity:1;" d="M 114.394531 129.34375 L 145.964844 129.34375 L 145.964844 85.722656 L 114.394531 85.722656 Z M 114.394531 129.34375 "/>
<path style=" stroke:none;fill-rule:evenodd;fill:rgb(89.0625%,0%,8.616638%);fill-opacity:1;" d="M 182.105469 129.34375 L 215.335938 129.34375 L 215.335938 85.722656 L 182.105469 85.722656 Z M 182.105469 129.34375 "/>
<path style=" stroke:none;fill-rule:evenodd;fill:rgb(61.914063%,85.9375%,95.701599%);fill-opacity:1;" d="M 117.300781 89.464844 L 145.550781 89.464844 L 145.550781 48.335938 L 117.300781 48.335938 Z M 117.300781 89.464844 "/>
<path style=" stroke:none;fill-rule:evenodd;fill:rgb(0%,49.804688%,75.78125%);fill-opacity:1;" d="M 43.277344 16.363281 L 108.808594 16.363281 C 119.726563 16.363281 128.113281 19.082031 133.941406 24.488281 C 139.796875 29.894531 142.722656 36.589844 142.722656 44.554688 C 142.722656 51.253906 140.636719 57.003906 136.472656 61.800781 C 133.675781 64.992188 129.617188 67.523438 124.261719 69.371094 C 132.382813 71.320313 138.371094 74.699219 142.222656 79.445313 C 146.046875 84.21875 147.96875 90.203125 147.96875 97.402344 C 147.96875 103.285156 146.597656 108.558594 143.882813 113.253906 C 141.140625 117.945313 137.421875 121.640625 132.675781 124.382813 C 129.746094 126.070313 125.316406 127.308594 119.382813 128.074219 C 111.503906 129.101563 106.277344 129.628906 103.691406 129.628906 L 43.277344 129.628906 Z M 78.589844 60.800781 L 93.804688 60.800781 C 99.261719 60.800781 103.058594 59.851563 105.222656 57.976563 C 107.359375 56.078125 108.414063 53.363281 108.414063 49.828125 C 108.414063 46.53125 107.359375 43.949219 105.222656 42.101563 C 103.058594 40.230469 99.339844 39.308594 94.039063 39.308594 L 78.589844 39.308594 Z M 78.589844 105.289063 L 96.441406 105.289063 C 102.480469 105.289063 106.726563 104.234375 109.179688 102.097656 C 111.65625 99.960938 112.894531 97.085938 112.894531 93.472656 C 112.894531 90.125 111.683594 87.433594 109.230469 85.40625 C 106.777344 83.375 102.503906 82.34375 96.359375 82.34375 L 78.589844 82.34375 Z M 78.589844 105.289063 "/>
<path style="fill-rule:evenodd;fill:rgb(10.594177%,9.812927%,9.423828%);fill-opacity:1;stroke-width:2;stroke-linecap:butt;stroke-linejoin:miter;stroke:rgb(0%,0%,0%);stroke-opacity:1;stroke-miterlimit:4;" d="M 4450.585938 572.742188 L 4899.21875 572.742188 L 4899.21875 1694.34375 L 4450.585938 1694.34375 Z M 4450.585938 572.742188 " transform="matrix(0.1,0,0,-0.1,0,186.2)"/>
<path style=" stroke:none;fill-rule:evenodd;fill:rgb(61.914063%,85.9375%,95.701599%);fill-opacity:1;" d="M 535.617188 128.925781 L 586.296875 128.925781 L 586.296875 16.765625 L 535.617188 16.765625 Z M 535.617188 128.925781 "/>
<path style=" stroke:none;fill-rule:evenodd;fill:rgb(89.0625%,0%,8.616638%);fill-opacity:1;" d="M 536.03125 16.765625 L 489.921875 16.765625 L 489.921875 128.925781 L 586.714844 128.925781 L 586.714844 91.125 L 536.03125 91.125 Z M 536.03125 16.765625 "/>
<path style=" stroke:none;fill-rule:evenodd;fill:rgb(89.0625%,0%,47.459412%);fill-opacity:1;" d="M 226.96875 16.765625 L 387.316406 16.765625 L 340.777344 98.1875 L 226.96875 98.1875 Z M 226.96875 16.765625 "/>
<path style=" stroke:none;fill-rule:evenodd;fill:rgb(98.826599%,78.125%,0%);fill-opacity:1;" d="M 155.835938 129.628906 L 155.835938 16.363281 L 214.164063 16.363281 C 224.976563 16.363281 233.257813 17.285156 238.953125 19.160156 C 244.675781 21.003906 249.296875 24.433594 252.796875 29.472656 C 256.304688 34.480469 258.046875 40.601563 258.046875 47.796875 C 258.046875 54.101563 256.703125 59.507813 254.039063 64.070313 C 251.347656 68.632813 247.65625 72.324219 242.988281 75.171875 C 239.984375 76.964844 235.894531 78.46875 230.699219 79.628906 C 261.523438 89.96875 257.945313 95.820313 267.253906 129.628906 L 215.230469 129.628906 L 213.980469 100.402344 C 213.765625 95.359375 209.507813 93.003906 207.628906 91.675781 C 205.132813 89.917969 202.242188 89.0625 199.054688 89.0625 L 185.589844 89.0625 L 185.589844 129.628906 Z M 184.753906 62.25 L 198.691406 62.25 C 200.273438 62.25 203.351563 61.71875 207.945313 60.722656 C 210.261719 60.21875 212.175781 59.066406 213.644531 57.160156 C 215.101563 55.269531 215.835938 53.074219 215.835938 50.59375 C 215.835938 46.929688 214.664063 44.140625 212.351563 42.183594 C 210.023438 40.210938 205.679688 39.226563 199.296875 39.226563 L 184.753906 39.226563 Z M 184.753906 62.25 "/>
<path style=" stroke:none;fill-rule:evenodd;fill:rgb(61.914063%,85.9375%,95.701599%);fill-opacity:1;" d="M 281.386719 128.925781 L 345.777344 128.925781 L 345.777344 89.878906 L 281.386719 89.878906 Z M 281.386719 128.925781 "/>
<path style=" stroke:none;fill-rule:evenodd;fill:rgb(100%,100%,100%);fill-opacity:1;" d="M 455.027344 45.429688 L 455.859375 22.167969 C 398.320313 13.023438 359.128906 17.039063 360.316406 50 C 358.578125 67.238281 368.273438 80.671875 403.101563 85.722656 C 420.273438 86.832031 423.046875 92.371094 411.410156 102.339844 C 398.53125 105.183594 385.65625 102.828125 372.777344 99.015625 L 382.335938 125.605469 C 430.171875 128.414063 455.238281 117.695313 461.257813 94.03125 C 466.9375 77.140625 453.78125 65.785156 421.796875 59.96875 C 400.753906 58.03125 396.046875 42.382813 415.148438 40.445313 C 428.027344 38.785156 441.734375 43.769531 455.027344 45.429688 Z M 455.027344 45.429688 "/>
<path style=" stroke:none;fill-rule:evenodd;fill:rgb(10.594177%,9.812927%,9.423828%);fill-opacity:1;" d="M 57.09375 150.328125 L 61.53125 150.328125 L 61.53125 162.226563 C 61.53125 164.117188 61.589844 165.34375 61.695313 165.902344 C 61.882813 166.800781 62.339844 167.523438 63.050781 168.066406 C 63.765625 168.613281 64.742188 168.882813 65.980469 168.882813 C 67.238281 168.882813 68.191406 168.628906 68.835938 168.109375 C 69.46875 167.601563 69.855469 166.964844 69.980469 166.21875 C 70.113281 165.464844 70.175781 164.222656 70.175781 162.484375 L 70.175781 150.328125 L 74.613281 150.328125 L 74.613281 161.871094 C 74.613281 164.507813 74.492188 166.371094 74.253906 167.460938 C 74.011719 168.550781 73.578125 169.464844 72.929688 170.21875 C 72.285156 170.964844 71.417969 171.5625 70.34375 172.007813 C 69.265625 172.453125 67.855469 172.675781 66.113281 172.675781 C 64.015625 172.675781 62.425781 172.433594 61.339844 171.949219 C 60.257813 171.460938 59.402344 170.832031 58.773438 170.058594 C 58.144531 169.289063 57.730469 168.472656 57.53125 167.625 C 57.238281 166.367188 57.09375 164.507813 57.09375 162.046875 Z M 98.5625 172.300781 L 98.5625 150.328125 L 102.882813 150.328125 L 111.878906 165 L 111.878906 150.328125 L 116.003906 150.328125 L 116.003906 172.300781 L 111.546875 172.300781 L 102.6875 157.972656 L 102.6875 172.300781 Z M 148.449219 172.300781 L 148.449219 150.328125 L 155.566406 150.328125 C 158.261719 150.328125 160.019531 150.441406 160.839844 150.660156 C 162.097656 150.988281 163.15625 151.703125 164.003906 152.808594 C 164.855469 153.914063 165.28125 155.339844 165.28125 157.085938 C 165.28125 158.4375 165.035156 159.574219 164.546875 160.488281 C 164.050781 161.410156 163.433594 162.128906 162.675781 162.65625 C 161.925781 163.179688 161.15625 163.527344 160.378906 163.695313 C 159.320313 163.90625 157.785156 164.011719 155.773438 164.011719 L 152.882813 164.011719 L 152.882813 172.300781 Z M 152.882813 154.046875 L 152.882813 160.277344 L 155.308594 160.277344 C 157.058594 160.277344 158.230469 160.167969 158.820313 159.9375 C 159.40625 159.707031 159.867188 159.347656 160.210938 158.855469 C 160.539063 158.367188 160.710938 157.796875 160.710938 157.148438 C 160.710938 156.351563 160.472656 155.691406 160.003906 155.167969 C 159.535156 154.652344 158.9375 154.324219 158.21875 154.195313 C 157.6875 154.09375 156.628906 154.046875 155.027344 154.046875 Z M 205.691406 172.300781 L 200.859375 172.300781 L 198.941406 167.308594 L 190.160156 167.308594 L 188.347656 172.300781 L 183.640625 172.300781 L 192.199219 150.328125 L 196.890625 150.328125 Z M 197.519531 163.609375 L 194.492188 155.453125 L 191.523438 163.609375 Z M 227.136719 150.328125 L 231.570313 150.328125 L 231.570313 172.300781 L 227.136719 172.300781 Z M 253.90625 165.152344 L 258.226563 164.730469 C 258.480469 166.183594 259.007813 167.246094 259.804688 167.925781 C 260.597656 168.601563 261.671875 168.945313 263.019531 168.945313 C 264.445313 168.945313 265.523438 168.644531 266.246094 168.035156 C 266.972656 167.429688 267.339844 166.726563 267.339844 165.917969 C 267.339844 165.394531 267.183594 164.953125 266.878906 164.589844 C 266.574219 164.222656 266.046875 163.90625 265.28125 163.640625 C 264.761719 163.457031 263.578125 163.136719 261.730469 162.679688 C 259.351563 162.089844 257.683594 161.363281 256.726563 160.503906 C 255.378906 159.296875 254.699219 157.824219 254.699219 156.082031 C 254.699219 154.964844 255.015625 153.917969 255.652344 152.941406 C 256.285156 151.96875 257.203125 151.230469 258.394531 150.71875 C 259.589844 150.210938 261.027344 149.957031 262.714844 149.957031 C 265.480469 149.957031 267.550781 150.558594 268.949219 151.765625 C 270.339844 152.976563 271.070313 154.589844 271.140625 156.609375 L 266.710938 156.804688 C 266.519531 155.675781 266.109375 154.859375 265.484375 154.371094 C 264.859375 153.875 263.925781 153.628906 262.675781 153.628906 C 261.386719 153.628906 260.378906 153.890625 259.648438 154.421875 C 259.175781 154.757813 258.941406 155.214844 258.941406 155.78125 C 258.941406 156.304688 259.160156 156.75 259.601563 157.117188 C 260.160156 157.589844 261.519531 158.078125 263.679688 158.585938 C 265.839844 159.097656 267.433594 159.625 268.46875 160.167969 C 269.503906 160.714844 270.308594 161.457031 270.898438 162.402344 C 271.480469 163.347656 271.773438 164.515625 271.773438 165.902344 C 271.773438 167.160156 271.425781 168.339844 270.722656 169.4375 C 270.023438 170.535156 269.035156 171.355469 267.757813 171.886719 C 266.476563 172.425781 264.878906 172.691406 262.972656 172.691406 C 260.195313 172.691406 258.0625 172.050781 256.574219 170.765625 C 255.085938 169.480469 254.195313 167.609375 253.90625 165.152344 Z M 303.253906 150.328125 L 311.359375 150.328125 C 313.183594 150.328125 314.578125 150.464844 315.539063 150.75 C 316.828125 151.125 317.933594 151.800781 318.847656 152.773438 C 319.769531 153.742188 320.46875 154.925781 320.949219 156.328125 C 321.425781 157.734375 321.671875 159.464844 321.671875 161.527344 C 321.671875 163.332031 321.441406 164.894531 320.992188 166.203125 C 320.445313 167.800781 319.660156 169.09375 318.636719 170.082031 C 317.871094 170.832031 316.835938 171.417969 315.523438 171.835938 C 314.546875 172.148438 313.234375 172.300781 311.59375 172.300781 L 303.253906 172.300781 Z M 307.683594 154.046875 L 307.683594 168.597656 L 310.996094 168.597656 C 312.234375 168.597656 313.128906 168.53125 313.679688 168.386719 C 314.398438 168.207031 314.996094 167.90625 315.472656 167.476563 C 315.949219 167.046875 316.335938 166.335938 316.632813 165.355469 C 316.929688 164.371094 317.085938 163.027344 317.085938 161.328125 C 317.085938 159.628906 316.929688 158.328125 316.632813 157.417969 C 316.335938 156.507813 315.910156 155.796875 315.378906 155.289063 C 314.835938 154.78125 314.148438 154.4375 313.316406 154.257813 C 312.699219 154.113281 311.484375 154.046875 309.675781 154.046875 Z M 344.664063 172.300781 L 344.664063 150.328125 L 360.953125 150.328125 L 360.953125 154.046875 L 349.097656 154.046875 L 349.097656 158.917969 L 360.128906 158.917969 L 360.128906 162.617188 L 349.097656 162.617188 L 349.097656 168.597656 L 361.371094 168.597656 L 361.371094 172.300781 Z M 397.839844 172.300781 L 397.839844 154.046875 L 391.320313 154.046875 L 391.320313 150.328125 L 408.78125 150.328125 L 408.78125 154.046875 L 402.277344 154.046875 L 402.277344 172.300781 Z M 429.421875 161.449219 C 429.421875 159.210938 429.753906 157.332031 430.425781 155.8125 C 430.925781 154.699219 431.605469 153.691406 432.472656 152.800781 C 433.339844 151.914063 434.28125 151.253906 435.3125 150.824219 C 436.683594 150.242188 438.257813 149.957031 440.046875 149.957031 C 443.285156 149.957031 445.878906 150.957031 447.820313 152.96875 C 449.761719 154.972656 450.734375 157.765625 450.734375 161.34375 C 450.734375 164.894531 449.769531 167.664063 447.839844 169.671875 C 445.910156 171.671875 443.335938 172.675781 440.109375 172.675781 C 436.839844 172.675781 434.242188 171.675781 432.3125 169.6875 C 430.382813 167.691406 429.421875 164.945313 429.421875 161.449219 Z M 433.992188 161.300781 C 433.992188 163.789063 434.570313 165.675781 435.714844 166.960938 C 436.867188 168.242188 438.324219 168.882813 440.09375 168.882813 C 441.859375 168.882813 443.3125 168.25 444.449219 166.96875 C 445.578125 165.695313 446.144531 163.789063 446.144531 161.242188 C 446.144531 158.722656 445.59375 156.847656 444.492188 155.601563 C 443.386719 154.363281 441.921875 153.746094 440.09375 153.746094 C 438.261719 153.746094 436.789063 154.375 435.671875 155.628906 C 434.554688 156.882813 433.992188 158.769531 433.992188 161.300781 Z M 473.414063 150.328125 L 481.523438 150.328125 C 483.347656 150.328125 484.742188 150.464844 485.703125 150.75 C 486.992188 151.125 488.097656 151.800781 489.011719 152.773438 C 489.933594 153.742188 490.632813 154.925781 491.113281 156.328125 C 491.589844 157.734375 491.835938 159.464844 491.835938 161.527344 C 491.835938 163.332031 491.605469 164.894531 491.15625 166.203125 C 490.609375 167.800781 489.824219 169.09375 488.800781 170.082031 C 488.035156 170.832031 486.996094 171.417969 485.6875 171.835938 C 484.714844 172.148438 483.398438 172.300781 481.757813 172.300781 L 473.414063 172.300781 Z M 477.847656 154.046875 L 477.847656 168.597656 L 481.160156 168.597656 C 482.398438 168.597656 483.296875 168.53125 483.84375 168.386719 C 484.5625 168.207031 485.160156 167.90625 485.636719 167.476563 C 486.113281 167.046875 486.496094 166.335938 486.796875 165.355469 C 487.09375 164.371094 487.246094 163.027344 487.246094 161.328125 C 487.246094 159.628906 487.09375 158.328125 486.796875 157.417969 C 486.496094 156.507813 486.074219 155.796875 485.539063 155.289063 C 484.996094 154.78125 484.3125 154.4375 483.480469 154.257813 C 482.863281 154.113281 481.648438 154.046875 479.839844 154.046875 Z M 513.925781 161.449219 C 513.925781 159.210938 514.257813 157.332031 514.929688 155.8125 C 515.429688 154.699219 516.109375 153.691406 516.976563 152.800781 C 517.839844 151.914063 518.785156 151.253906 519.816406 150.824219 C 521.183594 150.242188 522.761719 149.957031 524.550781 149.957031 C 527.789063 149.957031 530.378906 150.957031 532.324219 152.96875 C 534.265625 154.972656 535.238281 157.765625 535.238281 161.34375 C 535.238281 164.894531 534.273438 167.664063 532.34375 169.671875 C 530.414063 171.671875 527.839844 172.675781 524.613281 172.675781 C 521.34375 172.675781 518.746094 171.675781 516.816406 169.6875 C 514.886719 167.691406 513.925781 164.945313 513.925781 161.449219 Z M 518.496094 161.300781 C 518.496094 163.789063 519.074219 165.675781 520.21875 166.960938 C 521.371094 168.242188 522.828125 168.882813 524.597656 168.882813 C 526.363281 168.882813 527.816406 168.25 528.953125 166.96875 C 530.085938 165.695313 530.648438 163.789063 530.648438 161.242188 C 530.648438 158.722656 530.097656 156.847656 528.996094 155.601563 C 527.890625 154.363281 526.425781 153.746094 524.597656 153.746094 C 522.765625 153.746094 521.296875 154.375 520.171875 155.628906 C 519.058594 156.882813 518.496094 158.769531 518.496094 161.300781 Z M 556.808594 165.152344 L 561.128906 164.730469 C 561.382813 166.183594 561.90625 167.246094 562.710938 167.925781 C 563.503906 168.601563 564.566406 168.945313 565.921875 168.945313 C 567.347656 168.945313 568.425781 168.644531 569.148438 168.035156 C 569.878906 167.429688 570.238281 166.726563 570.238281 165.917969 C 570.238281 165.394531 570.085938 164.953125 569.777344 164.589844 C 569.472656 164.222656 568.941406 163.90625 568.179688 163.640625 C 567.664063 163.457031 566.476563 163.136719 564.628906 162.679688 C 562.253906 162.089844 560.585938 161.363281 559.628906 160.503906 C 558.277344 159.296875 557.601563 157.824219 557.601563 156.082031 C 557.601563 154.964844 557.921875 153.917969 558.550781 152.941406 C 559.1875 151.96875 560.101563 151.230469 561.296875 150.71875 C 562.492188 150.210938 563.929688 149.957031 565.617188 149.957031 C 568.378906 149.957031 570.453125 150.558594 571.847656 151.765625 C 573.238281 152.976563 573.972656 154.589844 574.046875 156.609375 L 569.609375 156.804688 C 569.421875 155.675781 569.007813 154.859375 568.386719 154.371094 C 567.761719 153.875 566.824219 153.628906 565.578125 153.628906 C 564.289063 153.628906 563.273438 153.890625 562.546875 154.421875 C 562.078125 154.757813 561.839844 155.214844 561.839844 155.78125 C 561.839844 156.304688 562.0625 156.75 562.503906 157.117188 C 563.058594 157.589844 564.421875 158.078125 566.578125 158.585938 C 568.738281 159.097656 570.335938 159.625 571.367188 160.167969 C 572.402344 160.714844 573.214844 161.457031 573.796875 162.402344 C 574.378906 163.347656 574.671875 164.515625 574.671875 165.902344 C 574.671875 167.160156 574.324219 168.339844 573.628906 169.4375 C 572.921875 170.535156 571.933594 171.355469 570.65625 171.886719 C 569.378906 172.425781 567.78125 172.691406 565.878906 172.691406 C 563.09375 172.691406 560.964844 172.050781 559.472656 170.765625 C 557.984375 169.480469 557.09375 167.609375 556.808594 165.152344 Z M 556.808594 165.152344 "/>
<path style=" stroke:none;fill-rule:evenodd;fill:rgb(0%,56.443787%,20.776367%);fill-opacity:1;" d="M 337.347656 110.933594 L 290.128906 110.933594 L 283.628906 129.628906 L 241.277344 129.628906 L 282.8125 16.363281 L 344.910156 16.363281 L 387.320313 129.628906 L 343.9375 129.628906 Z M 337.347656 110.933594 "/>
<path style=" stroke:none;fill-rule:evenodd;fill:rgb(98.826599%,78.125%,0%);fill-opacity:1;" d="M 317.519531 36.0625 L 359.0625 64.566406 L 317.519531 93.070313 L 275.960938 64.566406 Z M 317.519531 36.0625 "/>
<path style=" stroke:none;fill-rule:evenodd;fill:rgb(6.272888%,16.479492%,51.367188%);fill-opacity:1;" d="M 317.519531 43.78125 C 326.316406 43.78125 333.503906 53.128906 333.503906 64.585938 C 333.503906 76.042969 326.316406 85.390625 317.519531 85.390625 C 308.734375 85.390625 301.539063 76.042969 301.539063 64.585938 C 301.539063 53.128906 308.734375 43.78125 317.519531 43.78125 Z M 317.519531 43.78125 "/>
<path style=" stroke:none;fill-rule:evenodd;fill:rgb(100%,100%,100%);fill-opacity:1;" d="M 333.035156 68.78125 C 322.488281 61.082031 309.746094 59.726563 301.589844 64.628906 C 301.589844 63.042969 301.714844 61.539063 301.972656 60.015625 C 309.617188 54.988281 322.214844 56.90625 333.402344 64.523438 C 333.386719 65.902344 333.304688 67.382813 333.035156 68.78125 Z M 333.035156 68.78125 "/>
<path style=" stroke:none;fill-rule:evenodd;fill:rgb(100%,100%,100%);fill-opacity:1;" d="M 326.605469 57.09375 L 327.007813 58.140625 L 327.871094 57.886719 L 327.230469 58.703125 L 327.679688 59.703125 L 326.894531 59.160156 L 326.300781 60.015625 L 326.464844 58.871094 L 325.644531 58.410156 L 326.527344 58.242188 Z M 326.605469 57.09375 "/>
<path style=" stroke:none;fill-rule:evenodd;fill:rgb(100%,100%,100%);fill-opacity:1;" d="M 307.261719 74.519531 L 307.644531 75.5625 L 308.511719 75.3125 L 307.871094 76.125 L 308.316406 77.128906 L 307.53125 76.585938 L 306.960938 77.441406 L 307.101563 76.292969 L 306.296875 75.835938 L 307.164063 75.667969 Z M 307.261719 74.519531 "/>
<path style=" stroke:none;fill-rule:evenodd;fill:rgb(100%,100%,100%);fill-opacity:1;" d="M 312.101563 70.304688 L 312.339844 70.953125 L 312.886719 70.804688 L 312.484375 71.304688 L 312.773438 71.933594 L 312.277344 71.597656 L 311.910156 72.140625 L 312.003906 71.410156 L 311.492188 71.117188 L 312.035156 71.015625 Z M 312.101563 70.304688 "/>
<path style=" stroke:none;fill-rule:evenodd;fill:rgb(100%,100%,100%);fill-opacity:1;" d="M 311.671875 78.714844 L 311.878906 79.277344 L 312.339844 79.152344 L 312.003906 79.570313 L 312.246094 80.113281 L 311.828125 79.820313 L 311.507813 80.28125 L 311.589844 79.675781 L 311.15625 79.425781 L 311.621094 79.339844 Z M 311.671875 78.714844 "/>
<path style=" stroke:none;fill-rule:evenodd;fill:rgb(100%,100%,100%);fill-opacity:1;" d="M 321.253906 77.566406 L 321.464844 78.128906 L 321.925781 78.003906 L 321.574219 78.421875 L 321.8125 78.964844 L 321.398438 78.671875 L 321.09375 79.132813 L 321.171875 78.527344 L 320.742188 78.277344 L 321.203125 78.191406 Z M 321.253906 77.566406 "/>
<path style=" stroke:none;fill-rule:evenodd;fill:rgb(100%,100%,100%);fill-opacity:1;" d="M 323.386719 77.902344 L 323.578125 78.441406 L 324.046875 78.316406 L 323.710938 78.757813 L 323.945313 79.277344 L 323.527344 78.984375 L 323.210938 79.445313 L 323.289063 78.839844 L 322.855469 78.589844 L 323.339844 78.503906 Z M 323.386719 77.902344 "/>
<path style=" stroke:none;fill-rule:evenodd;fill:rgb(100%,100%,100%);fill-opacity:1;" d="M 325.296875 75 L 325.503906 75.5625 L 325.964844 75.4375 L 325.628906 75.855469 L 325.871094 76.398438 L 325.453125 76.105469 L 325.132813 76.566406 L 325.214844 75.960938 L 324.78125 75.710938 L 325.246094 75.625 Z M 325.296875 75 "/>
<path style=" stroke:none;fill-rule:evenodd;fill:rgb(100%,100%,100%);fill-opacity:1;" d="M 327.9375 75.207031 L 328.144531 75.75 L 328.609375 75.625 L 328.257813 76.042969 L 328.496094 76.585938 L 328.085938 76.292969 L 327.761719 76.753906 L 327.855469 76.148438 L 327.425781 75.898438 L 327.890625 75.8125 Z M 327.9375 75.207031 "/>
<path style=" stroke:none;fill-rule:evenodd;fill:rgb(100%,100%,100%);fill-opacity:1;" d="M 328.003906 73.976563 L 328.144531 74.375 L 328.480469 74.269531 L 328.242188 74.582031 L 328.402344 74.957031 L 328.113281 74.75 L 327.890625 75.0625 L 327.9375 74.644531 L 327.632813 74.457031 L 327.96875 74.414063 Z M 328.003906 73.976563 "/>
<path style=" stroke:none;fill-rule:evenodd;fill:rgb(100%,100%,100%);fill-opacity:1;" d="M 329.058594 72.433594 L 329.335938 73.164063 L 329.925781 72.996094 L 329.476563 73.539063 L 329.78125 74.226563 L 329.253906 73.851563 L 328.851563 74.4375 L 328.945313 73.664063 L 328.386719 73.332031 L 328.996094 73.226563 Z M 329.058594 72.433594 "/>
<path style=" stroke:none;fill-rule:evenodd;fill:rgb(100%,100%,100%);fill-opacity:1;" d="M 329.21875 70.136719 L 329.492188 70.847656 L 330.070313 70.679688 L 329.636719 71.222656 L 329.941406 71.890625 L 329.410156 71.515625 L 329.011719 72.097656 L 329.128906 71.328125 L 328.578125 71.015625 L 329.171875 70.910156 Z M 329.21875 70.136719 "/>
<path style=" stroke:none;fill-rule:evenodd;fill:rgb(100%,100%,100%);fill-opacity:1;" d="M 331.144531 69.386719 L 331.414063 70.097656 L 331.992188 69.929688 L 331.558594 70.472656 L 331.863281 71.140625 L 331.339844 70.765625 L 330.933594 71.347656 L 331.046875 70.574219 L 330.484375 70.261719 L 331.078125 70.160156 Z M 331.144531 69.386719 "/>
<path style=" stroke:none;fill-rule:evenodd;fill:rgb(100%,100%,100%);fill-opacity:1;" d="M 316.558594 71.160156 L 316.796875 71.808594 L 317.34375 71.660156 L 316.941406 72.160156 L 317.230469 72.789063 L 316.734375 72.453125 L 316.363281 72.996094 L 316.464844 72.265625 L 315.949219 71.972656 L 316.492188 71.871094 Z M 316.558594 71.160156 "/>
<path style=" stroke:none;fill-rule:evenodd;fill:rgb(100%,100%,100%);fill-opacity:1;" d="M 317.808594 72.683594 L 318.046875 73.289063 L 318.527344 73.144531 L 318.175781 73.621094 L 318.433594 74.207031 L 317.984375 73.894531 L 317.628906 74.394531 L 317.726563 73.726563 L 317.246094 73.457031 L 317.757813 73.351563 Z M 317.808594 72.683594 "/>
<path style=" stroke:none;fill-rule:evenodd;fill:rgb(100%,100%,100%);fill-opacity:1;" d="M 318.882813 70.535156 L 319.183594 71.347656 L 319.859375 71.160156 L 319.363281 71.785156 L 319.714844 72.578125 L 319.105469 72.140625 L 318.640625 72.828125 L 318.769531 71.933594 L 318.144531 71.558594 L 318.816406 71.429688 Z M 318.882813 70.535156 "/>
<path style=" stroke:none;fill-rule:evenodd;fill:rgb(100%,100%,100%);fill-opacity:1;" d="M 316.011719 73.539063 L 316.269531 74.207031 L 316.8125 74.039063 L 316.414063 74.539063 L 316.683594 75.1875 L 316.1875 74.832031 L 315.820313 75.375 L 315.914063 74.667969 L 315.402344 74.375 L 315.964844 74.269531 Z M 316.011719 73.539063 "/>
<path style=" stroke:none;fill-rule:evenodd;fill:rgb(100%,100%,100%);fill-opacity:1;" d="M 325.566406 66.738281 L 325.839844 67.488281 L 326.464844 67.300781 L 326.011719 67.882813 L 326.316406 68.59375 L 325.773438 68.195313 L 325.339844 68.824219 L 325.453125 68.007813 L 324.878906 67.675781 L 325.503906 67.550781 Z M 325.566406 66.738281 "/>
<path style=" stroke:none;fill-rule:evenodd;fill:rgb(100%,100%,100%);fill-opacity:1;" d="M 318.191406 74.414063 L 318.464844 75.167969 L 319.074219 74.980469 L 318.609375 75.5625 L 318.929688 76.273438 L 318.382813 75.875 L 317.96875 76.503906 L 318.078125 75.6875 L 317.503906 75.355469 L 318.128906 75.230469 Z M 318.191406 74.414063 "/>
<path style=" stroke:none;fill-rule:evenodd;fill:rgb(100%,100%,100%);fill-opacity:1;" d="M 322.132813 79.027344 L 322.421875 79.757813 L 323.03125 79.589844 L 322.585938 80.15625 L 322.902344 80.882813 L 322.34375 80.488281 L 321.910156 81.09375 L 322.023438 80.300781 L 321.445313 79.945313 L 322.070313 79.839844 Z M 322.132813 79.027344 "/>
<path style=" stroke:none;fill-rule:evenodd;fill:rgb(100%,100%,100%);fill-opacity:1;" d="M 326.414063 75.855469 L 326.6875 76.605469 L 327.3125 76.441406 L 326.847656 77.003906 L 327.171875 77.710938 L 326.605469 77.335938 L 326.191406 77.941406 L 326.300781 77.128906 L 325.726563 76.792969 L 326.351563 76.691406 Z M 326.414063 75.855469 "/>
<path style=" stroke:none;fill-rule:evenodd;fill:rgb(100%,100%,100%);fill-opacity:1;" d="M 327.519531 77.691406 L 327.796875 78.441406 L 328.421875 78.277344 L 327.953125 78.839844 L 328.273438 79.550781 L 327.714844 79.171875 L 327.296875 79.777344 L 327.40625 78.964844 L 326.835938 78.632813 L 327.460938 78.527344 Z M 327.519531 77.691406 "/>
<path style=" stroke:none;fill-rule:evenodd;fill:rgb(100%,100%,100%);fill-opacity:1;" d="M 304.183594 66.152344 L 304.390625 66.695313 L 304.855469 66.570313 L 304.519531 67.007813 L 304.742188 67.53125 L 304.34375 67.238281 L 304.023438 67.695313 L 304.101563 67.089844 L 303.671875 66.839844 L 304.132813 66.757813 Z M 304.183594 66.152344 "/>
<path style=" stroke:none;fill-rule:evenodd;fill:rgb(100%,100%,100%);fill-opacity:1;" d="M 318.496094 81.71875 L 318.6875 82.261719 L 319.136719 82.136719 L 318.800781 82.554688 L 319.046875 83.097656 L 318.628906 82.804688 L 318.339844 83.261719 L 318.421875 82.660156 L 317.984375 82.40625 L 318.449219 82.324219 Z M 318.496094 81.71875 "/>
<path style=" stroke:none;fill-rule:evenodd;fill:rgb(10.594177%,9.812927%,9.423828%);fill-opacity:1;" d="M 303.753906 59.996094 C 303.910156 59.914063 304.039063 59.914063 304.132813 59.953125 C 304.246094 60.015625 304.328125 60.164063 304.378906 60.328125 C 304.390625 60.414063 304.40625 60.496094 304.40625 60.601563 C 304.421875 60.726563 304.421875 60.832031 304.421875 60.976563 C 304.421875 61.164063 304.390625 61.351563 304.34375 61.539063 C 304.3125 61.726563 304.246094 61.894531 304.171875 62.042969 C 304.007813 62.355469 303.796875 62.582031 303.558594 62.707031 C 303.269531 62.835938 303.0625 62.792969 302.902344 62.5625 C 302.820313 62.457031 302.773438 62.355469 302.742188 62.207031 C 302.710938 62.082031 302.691406 61.9375 302.691406 61.75 C 302.710938 61.625 302.722656 61.5 302.742188 61.375 C 302.773438 61.25 302.820313 61.121094 302.867188 61.019531 C 302.964844 60.769531 303.109375 60.558594 303.269531 60.394531 C 303.429688 60.203125 303.589844 60.078125 303.753906 59.996094 Z M 303.71875 60.183594 C 303.589844 60.246094 303.464844 60.351563 303.367188 60.476563 C 303.253906 60.601563 303.15625 60.769531 303.09375 60.976563 C 303.011719 61.164063 302.964844 61.394531 302.964844 61.644531 C 302.949219 61.894531 302.980469 62.082031 303.027344 62.230469 C 303.09375 62.375 303.15625 62.480469 303.253906 62.519531 C 303.347656 62.5625 303.445313 62.5625 303.558594 62.519531 C 303.671875 62.457031 303.765625 62.375 303.847656 62.25 C 303.925781 62.125 304.007813 61.9375 304.070313 61.726563 C 304.117188 61.519531 304.152344 61.289063 304.171875 61.058594 C 304.171875 60.832031 304.152344 60.621094 304.132813 60.457031 C 304.101563 60.308594 304.054688 60.203125 303.992188 60.164063 C 303.925781 60.121094 303.835938 60.140625 303.71875 60.183594 Z M 304.824219 59.597656 C 305.113281 59.496094 305.402344 59.390625 305.6875 59.285156 C 305.867188 59.222656 305.976563 59.222656 306.058594 59.265625 C 306.121094 59.285156 306.1875 59.347656 306.203125 59.433594 C 306.234375 59.535156 306.253906 59.640625 306.234375 59.765625 C 306.203125 59.890625 306.171875 60.039063 306.121094 60.140625 C 306.074219 60.265625 306.011719 60.351563 305.914063 60.433594 C 305.835938 60.519531 305.722656 60.582031 305.578125 60.621094 C 305.65625 60.746094 305.722656 60.871094 305.785156 60.976563 C 305.867188 61.101563 305.929688 61.226563 306.011719 61.351563 C 306.046875 61.414063 306.058594 61.457031 306.074219 61.457031 C 306.105469 61.5 306.121094 61.519531 306.152344 61.519531 C 306.1875 61.539063 306.234375 61.539063 306.265625 61.539063 C 306.265625 61.539063 306.28125 61.519531 306.296875 61.519531 C 306.296875 61.582031 306.296875 61.625 306.28125 61.6875 C 306.152344 61.707031 306.046875 61.75 305.914063 61.789063 C 305.816406 61.601563 305.710938 61.414063 305.609375 61.226563 C 305.511719 61.058594 305.421875 60.894531 305.320313 60.726563 C 305.242188 60.746094 305.175781 60.769531 305.097656 60.789063 C 305.097656 60.933594 305.097656 61.058594 305.097656 61.207031 C 305.097656 61.332031 305.085938 61.476563 305.085938 61.601563 C 305.085938 61.6875 305.097656 61.75 305.097656 61.769531 C 305.097656 61.8125 305.128906 61.832031 305.144531 61.851563 C 305.160156 61.851563 305.191406 61.851563 305.257813 61.832031 C 305.273438 61.832031 305.273438 61.832031 305.289063 61.8125 C 305.289063 61.875 305.289063 61.914063 305.289063 61.976563 C 305.085938 62.0625 304.855469 62.125 304.648438 62.207031 C 304.648438 62.144531 304.648438 62.105469 304.648438 62.042969 C 304.679688 62.042969 304.695313 62.042969 304.714844 62.019531 C 304.761719 62.019531 304.796875 62 304.796875 61.976563 C 304.808594 61.976563 304.824219 61.957031 304.839844 61.914063 C 304.839844 61.894531 304.855469 61.875 304.855469 61.832031 C 304.855469 61.8125 304.871094 61.75 304.871094 61.644531 C 304.871094 61.351563 304.871094 61.058594 304.886719 60.769531 C 304.902344 60.496094 304.9375 60.203125 304.96875 59.933594 C 304.984375 59.851563 304.984375 59.808594 304.96875 59.765625 C 304.96875 59.746094 304.96875 59.726563 304.953125 59.726563 C 304.9375 59.703125 304.902344 59.703125 304.855469 59.726563 C 304.839844 59.746094 304.808594 59.746094 304.796875 59.746094 C 304.808594 59.703125 304.808594 59.640625 304.824219 59.597656 Z M 305.226563 59.640625 C 305.210938 59.808594 305.175781 59.953125 305.160156 60.121094 C 305.144531 60.289063 305.128906 60.457031 305.113281 60.621094 C 305.226563 60.582031 305.339844 60.539063 305.464844 60.496094 C 305.578125 60.457031 305.65625 60.414063 305.710938 60.371094 C 305.769531 60.328125 305.835938 60.265625 305.882813 60.183594 C 305.929688 60.078125 305.964844 59.976563 305.964844 59.851563 C 305.976563 59.746094 305.976563 59.664063 305.964844 59.597656 C 305.945313 59.535156 305.914063 59.496094 305.867188 59.472656 C 305.835938 59.453125 305.753906 59.453125 305.65625 59.472656 C 305.511719 59.535156 305.367188 59.578125 305.226563 59.640625 Z M 306.570313 59.203125 C 306.589844 59.160156 306.589844 59.097656 306.601563 59.058594 C 306.796875 58.996094 307.003906 58.953125 307.195313 58.890625 C 307.46875 58.828125 307.660156 58.828125 307.757813 58.871094 C 307.902344 58.910156 308.011719 59.035156 308.078125 59.246094 C 308.109375 59.347656 308.140625 59.453125 308.15625 59.597656 C 308.175781 59.726563 308.175781 59.871094 308.175781 60.015625 C 308.15625 60.226563 308.128906 60.414063 308.0625 60.601563 C 307.996094 60.789063 307.933594 60.957031 307.839844 61.082031 C 307.757813 61.183594 307.675781 61.269531 307.566406 61.3125 C 307.46875 61.375 307.355469 61.414063 307.261719 61.4375 C 306.972656 61.5 306.699219 61.582031 306.410156 61.644531 C 306.410156 61.601563 306.410156 61.539063 306.410156 61.5 C 306.441406 61.476563 306.460938 61.476563 306.476563 61.476563 C 306.492188 61.476563 306.492188 61.476563 306.507813 61.476563 C 306.539063 61.457031 306.554688 61.457031 306.589844 61.414063 C 306.601563 61.394531 306.617188 61.375 306.617188 61.332031 C 306.636719 61.3125 306.636719 61.269531 306.636719 61.164063 C 306.636719 60.871094 306.652344 60.582031 306.671875 60.289063 C 306.671875 60.015625 306.699219 59.726563 306.746094 59.433594 C 306.761719 59.328125 306.761719 59.265625 306.761719 59.246094 C 306.761719 59.203125 306.746094 59.183594 306.714844 59.183594 C 306.699219 59.183594 306.652344 59.183594 306.570313 59.203125 Z M 306.84375 61.332031 C 306.972656 61.3125 307.085938 61.269531 307.214844 61.25 C 307.246094 61.226563 307.308594 61.207031 307.386719 61.183594 C 307.46875 61.144531 307.53125 61.101563 307.566406 61.082031 C 307.628906 61.019531 307.675781 60.933594 307.726563 60.851563 C 307.773438 60.746094 307.820313 60.621094 307.851563 60.496094 C 307.886719 60.351563 307.902344 60.203125 307.921875 60.039063 C 307.933594 59.871094 307.921875 59.726563 307.902344 59.597656 C 307.886719 59.496094 307.871094 59.390625 307.820313 59.285156 C 307.789063 59.203125 307.742188 59.140625 307.675781 59.097656 C 307.613281 59.058594 307.546875 59.035156 307.46875 59.035156 C 307.4375 59.035156 307.355469 59.058594 307.261719 59.078125 C 307.164063 59.097656 307.085938 59.121094 307.003906 59.140625 C 306.941406 59.496094 306.90625 59.871094 306.878906 60.226563 C 306.859375 60.601563 306.859375 60.976563 306.84375 61.332031 Z M 308.574219 58.660156 C 309.023438 58.597656 309.472656 58.535156 309.921875 58.515625 C 309.9375 58.617188 309.9375 58.722656 309.953125 58.828125 C 309.953125 58.953125 309.984375 59.058594 309.984375 59.160156 C 309.953125 59.183594 309.90625 59.203125 309.871094 59.222656 C 309.855469 59.121094 309.839844 59.035156 309.824219 58.972656 C 309.796875 58.933594 309.777344 58.871094 309.730469 58.828125 C 309.695313 58.785156 309.648438 58.765625 309.617188 58.765625 C 309.566406 58.742188 309.488281 58.742188 309.378906 58.742188 C 309.230469 58.765625 309.105469 58.765625 308.976563 58.785156 C 308.941406 58.953125 308.925781 59.097656 308.910156 59.265625 C 308.878906 59.410156 308.878906 59.578125 308.863281 59.726563 C 308.925781 59.726563 308.992188 59.703125 309.054688 59.703125 C 309.136719 59.703125 309.199219 59.664063 309.230469 59.621094 C 309.265625 59.578125 309.3125 59.535156 309.328125 59.472656 C 309.34375 59.433594 309.359375 59.371094 309.359375 59.265625 C 309.378906 59.246094 309.378906 59.222656 309.378906 59.222656 C 309.40625 59.203125 309.460938 59.203125 309.488281 59.203125 C 309.460938 59.390625 309.441406 59.578125 309.441406 59.765625 C 309.425781 59.953125 309.40625 60.140625 309.40625 60.328125 C 309.359375 60.328125 309.328125 60.328125 309.296875 60.328125 C 309.296875 60.308594 309.296875 60.265625 309.296875 60.246094 C 309.296875 60.164063 309.296875 60.101563 309.296875 60.058594 C 309.28125 60.015625 309.265625 59.976563 309.246094 59.953125 C 309.230469 59.914063 309.199219 59.890625 309.183594 59.890625 C 309.152344 59.871094 309.121094 59.871094 309.054688 59.890625 C 308.976563 59.890625 308.910156 59.890625 308.847656 59.914063 C 308.847656 60.058594 308.835938 60.183594 308.835938 60.328125 C 308.816406 60.476563 308.816406 60.601563 308.816406 60.746094 C 308.816406 60.832031 308.816406 60.894531 308.816406 60.914063 C 308.816406 60.933594 308.835938 60.933594 308.847656 60.957031 C 308.847656 60.957031 308.878906 60.957031 308.925781 60.933594 C 309.023438 60.933594 309.105469 60.933594 309.183594 60.914063 C 309.328125 60.914063 309.425781 60.871094 309.519531 60.808594 C 309.601563 60.746094 309.664063 60.664063 309.730469 60.558594 C 309.777344 60.476563 309.824219 60.351563 309.890625 60.183594 C 309.921875 60.203125 309.953125 60.226563 309.984375 60.246094 C 309.9375 60.371094 309.90625 60.519531 309.871094 60.644531 C 309.839844 60.789063 309.796875 60.914063 309.761719 61.058594 C 309.296875 61.101563 308.835938 61.164063 308.367188 61.25 C 308.367188 61.183594 308.367188 61.144531 308.367188 61.082031 C 308.382813 61.082031 308.398438 61.082031 308.414063 61.082031 C 308.476563 61.058594 308.511719 61.058594 308.527344 61.039063 C 308.546875 61.019531 308.558594 60.996094 308.574219 60.957031 C 308.574219 60.933594 308.574219 60.871094 308.589844 60.789063 C 308.589844 60.496094 308.605469 60.203125 308.621094 59.890625 C 308.640625 59.597656 308.671875 59.308594 308.71875 59.015625 C 308.71875 58.933594 308.734375 58.890625 308.71875 58.871094 C 308.71875 58.828125 308.703125 58.804688 308.6875 58.804688 C 308.671875 58.804688 308.621094 58.804688 308.546875 58.804688 C 308.558594 58.765625 308.558594 58.722656 308.574219 58.660156 Z M 310.339844 58.472656 C 310.515625 58.472656 310.691406 58.453125 310.867188 58.429688 C 310.898438 58.765625 310.929688 59.097656 310.980469 59.433594 C 311.027344 59.765625 311.089844 60.101563 311.15625 60.433594 C 311.253906 60.101563 311.347656 59.765625 311.464844 59.433594 C 311.570313 59.078125 311.699219 58.765625 311.828125 58.429688 C 311.988281 58.429688 312.164063 58.429688 312.339844 58.429688 C 312.324219 58.472656 312.324219 58.535156 312.308594 58.578125 C 312.296875 58.578125 312.277344 58.578125 312.277344 58.578125 C 312.214844 58.578125 312.179688 58.578125 312.164063 58.597656 C 312.148438 58.617188 312.117188 58.640625 312.117188 58.660156 C 312.101563 58.703125 312.089844 58.742188 312.070313 58.828125 C 312.035156 59.097656 312.003906 59.371094 311.988281 59.664063 C 311.960938 59.933594 311.941406 60.203125 311.925781 60.496094 C 311.925781 60.601563 311.925781 60.664063 311.925781 60.683594 C 311.925781 60.726563 311.941406 60.746094 311.960938 60.769531 C 311.972656 60.789063 312.003906 60.789063 312.070313 60.789063 C 312.089844 60.789063 312.101563 60.789063 312.117188 60.789063 C 312.101563 60.832031 312.101563 60.894531 312.101563 60.933594 C 311.890625 60.933594 311.683594 60.957031 311.464844 60.957031 C 311.476563 60.894531 311.476563 60.851563 311.476563 60.789063 C 311.492188 60.789063 311.507813 60.789063 311.523438 60.789063 C 311.554688 60.789063 311.589844 60.789063 311.621094 60.789063 C 311.636719 60.769531 311.652344 60.746094 311.652344 60.726563 C 311.671875 60.707031 311.683594 60.683594 311.683594 60.664063 C 311.683594 60.621094 311.699219 60.582031 311.699219 60.539063 C 311.714844 60.246094 311.730469 59.933594 311.765625 59.621094 C 311.78125 59.308594 311.828125 58.996094 311.859375 58.679688 C 311.714844 59.058594 311.589844 59.433594 311.476563 59.828125 C 311.363281 60.203125 311.253906 60.582031 311.140625 60.957031 C 311.089844 60.957031 311.058594 60.957031 311.011719 60.957031 C 310.945313 60.582031 310.882813 60.226563 310.820313 59.851563 C 310.738281 59.472656 310.691406 59.121094 310.660156 58.742188 C 310.609375 59.035156 310.578125 59.347656 310.546875 59.640625 C 310.53125 59.953125 310.515625 60.246094 310.496094 60.558594 C 310.496094 60.644531 310.496094 60.707031 310.496094 60.726563 C 310.515625 60.769531 310.53125 60.789063 310.546875 60.808594 C 310.578125 60.832031 310.609375 60.832031 310.660156 60.832031 C 310.675781 60.832031 310.691406 60.808594 310.710938 60.808594 C 310.710938 60.871094 310.710938 60.914063 310.691406 60.976563 C 310.496094 60.996094 310.304688 60.996094 310.113281 61.019531 C 310.113281 60.976563 310.113281 60.914063 310.113281 60.871094 C 310.128906 60.871094 310.144531 60.871094 310.160156 60.871094 C 310.214844 60.871094 310.257813 60.851563 310.273438 60.832031 C 310.304688 60.808594 310.320313 60.789063 310.339844 60.746094 C 310.339844 60.707031 310.355469 60.644531 310.355469 60.539063 C 310.371094 60.265625 310.386719 59.996094 310.402344 59.703125 C 310.421875 59.433594 310.449219 59.160156 310.496094 58.890625 C 310.496094 58.785156 310.515625 58.722656 310.496094 58.703125 C 310.496094 58.679688 310.496094 58.660156 310.464844 58.640625 C 310.449219 58.617188 310.421875 58.617188 310.371094 58.617188 C 310.355469 58.617188 310.320313 58.640625 310.304688 58.640625 C 310.320313 58.578125 310.320313 58.535156 310.339844 58.472656 Z M 314.136719 58.515625 C 314.589844 58.535156 315.035156 58.597656 315.46875 58.640625 C 315.484375 58.742188 315.503906 58.871094 315.503906 58.972656 C 315.515625 59.078125 315.53125 59.203125 315.546875 59.308594 C 315.503906 59.328125 315.46875 59.328125 315.433594 59.347656 C 315.421875 59.246094 315.402344 59.160156 315.371094 59.097656 C 315.355469 59.035156 315.324219 58.972656 315.289063 58.933594 C 315.242188 58.890625 315.214844 58.847656 315.164063 58.828125 C 315.128906 58.804688 315.050781 58.785156 314.9375 58.785156 C 314.796875 58.765625 314.664063 58.742188 314.539063 58.722656 C 314.503906 58.890625 314.488281 59.035156 314.472656 59.183594 C 314.460938 59.328125 314.441406 59.472656 314.425781 59.640625 C 314.503906 59.640625 314.570313 59.640625 314.632813 59.664063 C 314.699219 59.664063 314.761719 59.640625 314.796875 59.621094 C 314.839844 59.578125 314.878906 59.535156 314.890625 59.496094 C 314.90625 59.453125 314.921875 59.371094 314.9375 59.265625 C 314.9375 59.265625 314.9375 59.246094 314.9375 59.222656 C 314.96875 59.246094 315.019531 59.246094 315.050781 59.246094 C 315.035156 59.433594 315.003906 59.597656 314.984375 59.789063 C 314.96875 59.976563 314.953125 60.140625 314.9375 60.328125 C 314.90625 60.328125 314.878906 60.308594 314.824219 60.308594 C 314.839844 60.289063 314.839844 60.246094 314.839844 60.226563 C 314.859375 60.140625 314.839844 60.078125 314.839844 60.039063 C 314.839844 59.996094 314.824219 59.953125 314.808594 59.933594 C 314.796875 59.890625 314.761719 59.871094 314.746094 59.851563 C 314.714844 59.851563 314.679688 59.828125 314.617188 59.828125 C 314.554688 59.808594 314.488281 59.808594 314.410156 59.808594 C 314.394531 59.933594 314.394531 60.078125 314.378906 60.203125 C 314.359375 60.351563 314.34375 60.476563 314.34375 60.621094 C 314.34375 60.707031 314.34375 60.746094 314.34375 60.769531 C 314.34375 60.789063 314.34375 60.789063 314.359375 60.808594 C 314.378906 60.808594 314.410156 60.808594 314.460938 60.832031 C 314.539063 60.832031 314.617188 60.851563 314.699219 60.851563 C 314.839844 60.871094 314.953125 60.851563 315.035156 60.808594 C 315.113281 60.769531 315.179688 60.707031 315.257813 60.601563 C 315.304688 60.539063 315.355469 60.433594 315.421875 60.289063 C 315.449219 60.308594 315.484375 60.328125 315.515625 60.351563 C 315.46875 60.476563 315.433594 60.601563 315.386719 60.726563 C 315.355469 60.851563 315.304688 60.976563 315.257813 61.101563 C 314.808594 61.058594 314.34375 60.996094 313.878906 60.976563 C 313.878906 60.933594 313.894531 60.894531 313.894531 60.832031 C 313.910156 60.832031 313.929688 60.832031 313.945313 60.832031 C 313.992188 60.851563 314.039063 60.832031 314.039063 60.832031 C 314.074219 60.808594 314.089844 60.789063 314.105469 60.746094 C 314.105469 60.726563 314.121094 60.683594 314.121094 60.601563 C 314.136719 60.308594 314.171875 60.039063 314.199219 59.746094 C 314.214844 59.472656 314.253906 59.183594 314.28125 58.890625 C 314.296875 58.828125 314.296875 58.765625 314.296875 58.742188 C 314.28125 58.722656 314.265625 58.703125 314.253906 58.679688 C 314.253906 58.679688 314.183594 58.660156 314.105469 58.660156 C 314.121094 58.617188 314.121094 58.554688 314.136719 58.515625 Z M 317.40625 58.933594 C 317.613281 58.972656 317.839844 59.015625 318.046875 59.058594 C 318.253906 59.078125 318.382813 59.121094 318.449219 59.183594 C 318.527344 59.246094 318.59375 59.328125 318.640625 59.453125 C 318.671875 59.578125 318.703125 59.726563 318.671875 59.871094 C 318.65625 60.015625 318.628906 60.121094 318.578125 60.226563 C 318.511719 60.328125 318.433594 60.394531 318.351563 60.433594 C 318.253906 60.476563 318.144531 60.476563 317.96875 60.457031 C 317.871094 60.433594 317.757813 60.414063 317.679688 60.394531 C 317.648438 60.601563 317.628906 60.808594 317.597656 61.019531 C 317.597656 61.101563 317.597656 61.164063 317.597656 61.183594 C 317.597656 61.226563 317.613281 61.25 317.628906 61.269531 C 317.628906 61.269531 317.664063 61.289063 317.714844 61.3125 C 317.742188 61.3125 317.757813 61.3125 317.773438 61.3125 C 317.757813 61.351563 317.757813 61.414063 317.757813 61.457031 C 317.550781 61.414063 317.34375 61.394531 317.132813 61.351563 C 317.132813 61.3125 317.132813 61.25 317.148438 61.207031 C 317.148438 61.207031 317.164063 61.207031 317.183594 61.207031 C 317.230469 61.226563 317.261719 61.226563 317.296875 61.207031 C 317.308594 61.207031 317.324219 61.183594 317.34375 61.164063 C 317.359375 61.121094 317.378906 61.082031 317.378906 60.996094 C 317.40625 60.726563 317.4375 60.457031 317.46875 60.164063 C 317.503906 59.890625 317.535156 59.621094 317.566406 59.347656 C 317.566406 59.265625 317.566406 59.222656 317.566406 59.183594 C 317.566406 59.160156 317.550781 59.140625 317.535156 59.121094 C 317.519531 59.097656 317.488281 59.097656 317.421875 59.078125 C 317.40625 59.078125 317.390625 59.078125 317.390625 59.078125 C 317.390625 59.035156 317.390625 58.972656 317.40625 58.933594 Z M 317.808594 59.203125 C 317.789063 59.371094 317.773438 59.535156 317.757813 59.703125 C 317.726563 59.871094 317.714844 60.039063 317.695313 60.203125 C 317.773438 60.226563 317.855469 60.246094 317.933594 60.246094 C 318.0625 60.265625 318.160156 60.265625 318.222656 60.246094 C 318.273438 60.226563 318.320313 60.183594 318.367188 60.101563 C 318.398438 60.015625 318.433594 59.933594 318.449219 59.828125 C 318.464844 59.703125 318.449219 59.597656 318.421875 59.515625 C 318.398438 59.410156 318.351563 59.347656 318.289063 59.308594 C 318.238281 59.285156 318.144531 59.265625 318.015625 59.246094 C 317.933594 59.222656 317.871094 59.203125 317.808594 59.203125 Z M 318.882813 59.222656 C 319.152344 59.285156 319.441406 59.347656 319.714844 59.433594 C 319.878906 59.453125 319.988281 59.515625 320.066406 59.578125 C 320.148438 59.640625 320.195313 59.726563 320.226563 59.828125 C 320.257813 59.933594 320.277344 60.058594 320.257813 60.164063 C 320.257813 60.289063 320.214844 60.394531 320.164063 60.476563 C 320.113281 60.582031 320.035156 60.644531 319.9375 60.664063 C 319.859375 60.707031 319.746094 60.707031 319.617188 60.683594 C 319.671875 60.832031 319.730469 60.976563 319.777344 61.121094 C 319.828125 61.25 319.890625 61.394531 319.9375 61.539063 C 319.972656 61.625 319.988281 61.664063 320.003906 61.6875 C 320.019531 61.707031 320.050781 61.75 320.066406 61.769531 C 320.097656 61.8125 320.132813 61.8125 320.164063 61.832031 C 320.179688 61.832031 320.179688 61.832031 320.195313 61.832031 C 320.179688 61.875 320.179688 61.9375 320.164063 61.976563 C 320.050781 61.957031 319.921875 61.914063 319.796875 61.894531 C 319.730469 61.6875 319.671875 61.476563 319.589844 61.269531 C 319.523438 61.039063 319.441406 60.832031 319.363281 60.621094 C 319.296875 60.601563 319.21875 60.582031 319.152344 60.582031 C 319.136719 60.707031 319.121094 60.808594 319.105469 60.933594 C 319.089844 61.058594 319.074219 61.183594 319.058594 61.3125 C 319.058594 61.394531 319.046875 61.4375 319.046875 61.457031 C 319.058594 61.5 319.058594 61.539063 319.074219 61.5625 C 319.105469 61.582031 319.136719 61.582031 319.183594 61.601563 C 319.203125 61.601563 319.21875 61.601563 319.234375 61.625 C 319.21875 61.664063 319.21875 61.707031 319.203125 61.75 C 318.992188 61.707031 318.800781 61.664063 318.59375 61.625 C 318.59375 61.5625 318.609375 61.519531 318.609375 61.476563 C 318.628906 61.476563 318.640625 61.476563 318.65625 61.476563 C 318.703125 61.5 318.738281 61.5 318.753906 61.5 C 318.769531 61.5 318.785156 61.476563 318.800781 61.457031 C 318.800781 61.4375 318.816406 61.414063 318.835938 61.394531 C 318.835938 61.375 318.835938 61.3125 318.847656 61.226563 C 318.882813 60.957031 318.914063 60.707031 318.945313 60.433594 C 318.976563 60.183594 319.007813 59.914063 319.046875 59.640625 C 319.046875 59.578125 319.058594 59.535156 319.046875 59.496094 C 319.046875 59.472656 319.023438 59.453125 319.007813 59.433594 C 318.992188 59.410156 318.964844 59.390625 318.929688 59.390625 C 318.898438 59.390625 318.882813 59.371094 318.863281 59.371094 C 318.882813 59.328125 318.882813 59.265625 318.882813 59.222656 Z M 319.28125 59.515625 C 319.265625 59.664063 319.253906 59.808594 319.234375 59.953125 C 319.21875 60.121094 319.183594 60.265625 319.171875 60.414063 C 319.28125 60.433594 319.394531 60.457031 319.507813 60.496094 C 319.632813 60.519531 319.699219 60.519531 319.746094 60.519531 C 319.828125 60.496094 319.878906 60.457031 319.921875 60.394531 C 319.972656 60.328125 320.003906 60.246094 320.019531 60.140625 C 320.019531 60.039063 320.019531 59.953125 320.003906 59.890625 C 319.988281 59.808594 319.953125 59.746094 319.90625 59.703125 C 319.859375 59.664063 319.796875 59.640625 319.699219 59.621094 C 319.554688 59.578125 319.410156 59.535156 319.28125 59.515625 Z M 321.445313 59.851563 C 321.589844 59.890625 321.734375 59.976563 321.835938 60.121094 C 321.941406 60.265625 322.039063 60.433594 322.089844 60.644531 C 322.101563 60.726563 322.117188 60.832031 322.117188 60.957031 C 322.117188 61.058594 322.117188 61.164063 322.101563 61.289063 C 322.070313 61.457031 322.039063 61.625 321.972656 61.75 C 321.910156 61.894531 321.847656 62.019531 321.753906 62.105469 C 321.558594 62.292969 321.347656 62.355469 321.109375 62.269531 C 320.851563 62.207031 320.660156 62 320.546875 61.6875 C 320.503906 61.5625 320.453125 61.414063 320.453125 61.289063 C 320.4375 61.144531 320.4375 60.976563 320.46875 60.832031 C 320.484375 60.707031 320.503906 60.601563 320.53125 60.496094 C 320.5625 60.414063 320.597656 60.308594 320.644531 60.226563 C 320.742188 60.078125 320.851563 59.953125 320.996094 59.890625 C 321.140625 59.808594 321.300781 59.808594 321.445313 59.851563 Z M 321.429688 60.015625 C 321.316406 59.996094 321.203125 60.015625 321.109375 60.058594 C 321.011719 60.121094 320.933594 60.226563 320.867188 60.351563 C 320.789063 60.496094 320.742188 60.683594 320.710938 60.914063 C 320.675781 61.144531 320.691406 61.332031 320.710938 61.5 C 320.742188 61.664063 320.789063 61.8125 320.867188 61.914063 C 320.933594 62.019531 321.027344 62.082031 321.140625 62.105469 C 321.238281 62.144531 321.335938 62.125 321.429688 62.082031 C 321.527344 62.019531 321.621094 61.914063 321.703125 61.75 C 321.78125 61.601563 321.835938 61.414063 321.863281 61.207031 C 321.878906 60.996094 321.894531 60.789063 321.847656 60.601563 C 321.835938 60.433594 321.765625 60.308594 321.703125 60.226563 C 321.636719 60.121094 321.546875 60.058594 321.429688 60.015625 Z M 323.738281 60.621094 C 323.753906 60.621094 323.785156 60.644531 323.816406 60.644531 C 323.835938 60.769531 323.835938 60.894531 323.851563 61.039063 C 323.851563 61.164063 323.867188 61.289063 323.867188 61.414063 C 323.835938 61.414063 323.800781 61.4375 323.769531 61.4375 C 323.722656 61.183594 323.65625 60.996094 323.578125 60.851563 C 323.496094 60.726563 323.402344 60.644531 323.289063 60.601563 C 323.128906 60.558594 322.984375 60.601563 322.855469 60.769531 C 322.796875 60.851563 322.726563 60.933594 322.695313 61.058594 C 322.648438 61.164063 322.632813 61.289063 322.597656 61.414063 C 322.566406 61.625 322.566406 61.8125 322.597656 62 C 322.632813 62.1875 322.679688 62.332031 322.761719 62.4375 C 322.839844 62.5625 322.9375 62.644531 323.046875 62.667969 C 323.113281 62.6875 323.175781 62.707031 323.242188 62.6875 C 323.304688 62.667969 323.367188 62.644531 323.421875 62.605469 C 323.449219 62.582031 323.464844 62.542969 323.480469 62.5 C 323.496094 62.457031 323.527344 62.394531 323.527344 62.3125 C 323.546875 62.269531 323.546875 62.25 323.5625 62.207031 C 323.5625 62.125 323.5625 62.042969 323.5625 62 C 323.546875 61.957031 323.527344 61.9375 323.511719 61.914063 C 323.496094 61.894531 323.449219 61.875 323.351563 61.832031 C 323.367188 61.789063 323.367188 61.75 323.386719 61.6875 C 323.59375 61.769531 323.800781 61.832031 324.027344 61.914063 C 324.011719 61.957031 324.011719 62 323.992188 62.0625 C 323.992188 62.042969 323.976563 62.042969 323.945313 62.042969 C 323.914063 62.019531 323.882813 62.019531 323.851563 62.019531 C 323.835938 62.042969 323.816406 62.042969 323.800781 62.082031 C 323.800781 62.105469 323.785156 62.144531 323.769531 62.230469 C 323.753906 62.355469 323.722656 62.5 323.710938 62.625 C 323.671875 62.773438 323.65625 62.898438 323.628906 63.023438 C 323.59375 63.023438 323.5625 63 323.511719 63 C 323.511719 62.917969 323.511719 62.855469 323.496094 62.773438 C 323.421875 62.8125 323.351563 62.855469 323.273438 62.855469 C 323.144531 62.875 323.046875 62.875 322.9375 62.835938 C 322.726563 62.773438 322.566406 62.582031 322.460938 62.3125 C 322.390625 62.167969 322.34375 62.019531 322.34375 61.851563 C 322.328125 61.707031 322.328125 61.539063 322.359375 61.375 C 322.378906 61.207031 322.40625 61.039063 322.472656 60.914063 C 322.519531 60.789063 322.597656 60.683594 322.695313 60.582031 C 322.871094 60.394531 323.0625 60.351563 323.289063 60.414063 C 323.339844 60.433594 323.386719 60.457031 323.433594 60.496094 C 323.480469 60.539063 323.527344 60.582031 323.578125 60.621094 C 323.609375 60.644531 323.640625 60.707031 323.671875 60.769531 C 323.6875 60.707031 323.710938 60.664063 323.738281 60.621094 Z M 324.347656 60.832031 C 324.617188 60.933594 324.890625 61.039063 325.164063 61.144531 C 325.308594 61.207031 325.4375 61.269531 325.515625 61.351563 C 325.585938 61.4375 325.628906 61.519531 325.675781 61.625 C 325.714844 61.75 325.726563 61.851563 325.714844 61.976563 C 325.691406 62.082031 325.660156 62.1875 325.597656 62.269531 C 325.550781 62.355469 325.484375 62.394531 325.386719 62.417969 C 325.296875 62.4375 325.195313 62.4375 325.066406 62.375 C 325.117188 62.542969 325.164063 62.6875 325.214844 62.835938 C 325.261719 62.980469 325.308594 63.148438 325.339844 63.292969 C 325.371094 63.375 325.386719 63.417969 325.386719 63.4375 C 325.40625 63.480469 325.4375 63.523438 325.453125 63.542969 C 325.484375 63.566406 325.515625 63.605469 325.550781 63.605469 C 325.566406 63.605469 325.566406 63.628906 325.585938 63.628906 C 325.566406 63.667969 325.566406 63.710938 325.550781 63.753906 C 325.421875 63.710938 325.308594 63.667969 325.195313 63.628906 C 325.132813 63.398438 325.066406 63.167969 325.003906 62.960938 C 324.960938 62.730469 324.890625 62.5 324.828125 62.292969 C 324.746094 62.269531 324.683594 62.230469 324.617188 62.207031 C 324.601563 62.332031 324.570313 62.4375 324.554688 62.5625 C 324.539063 62.6875 324.523438 62.8125 324.492188 62.917969 C 324.476563 63 324.476563 63.0625 324.476563 63.085938 C 324.476563 63.125 324.476563 63.148438 324.492188 63.167969 C 324.507813 63.1875 324.554688 63.210938 324.601563 63.230469 C 324.617188 63.25 324.617188 63.25 324.636719 63.25 C 324.636719 63.292969 324.617188 63.335938 324.617188 63.398438 C 324.410156 63.3125 324.21875 63.230469 324.011719 63.167969 C 324.027344 63.105469 324.027344 63.0625 324.046875 63.023438 C 324.058594 63.023438 324.074219 63.042969 324.089844 63.042969 C 324.136719 63.0625 324.15625 63.0625 324.171875 63.0625 C 324.1875 63.0625 324.203125 63.042969 324.21875 63.023438 C 324.234375 63.023438 324.253906 63 324.253906 62.960938 C 324.265625 62.960938 324.265625 62.898438 324.296875 62.792969 C 324.335938 62.542969 324.378906 62.292969 324.410156 62.042969 C 324.460938 61.789063 324.492188 61.519531 324.507813 61.269531 C 324.523438 61.207031 324.523438 61.164063 324.507813 61.121094 C 324.507813 61.082031 324.507813 61.058594 324.492188 61.039063 C 324.460938 61.019531 324.441406 60.996094 324.410156 60.996094 C 324.378906 60.976563 324.363281 60.976563 324.335938 60.976563 C 324.335938 60.914063 324.347656 60.871094 324.347656 60.832031 Z M 324.746094 61.164063 C 324.730469 61.3125 324.714844 61.457031 324.699219 61.601563 C 324.683594 61.75 324.671875 61.894531 324.652344 62.042969 C 324.746094 62.082031 324.859375 62.125 324.972656 62.167969 C 325.085938 62.230469 325.164063 62.230469 325.195313 62.230469 C 325.277344 62.230469 325.324219 62.207031 325.371094 62.144531 C 325.421875 62.082031 325.453125 62 325.46875 61.894531 C 325.46875 61.8125 325.46875 61.726563 325.4375 61.644531 C 325.421875 61.5625 325.40625 61.5 325.355469 61.457031 C 325.308594 61.414063 325.246094 61.375 325.148438 61.332031 C 325.019531 61.269531 324.878906 61.226563 324.746094 61.164063 Z M 326.011719 61.476563 C 326.429688 61.644531 326.863281 61.832031 327.28125 62.019531 C 327.296875 62.144531 327.3125 62.25 327.328125 62.375 C 327.34375 62.480469 327.359375 62.582031 327.378906 62.707031 C 327.34375 62.707031 327.3125 62.707031 327.28125 62.707031 C 327.265625 62.605469 327.246094 62.519531 327.214844 62.4375 C 327.199219 62.375 327.171875 62.3125 327.136719 62.25 C 327.089844 62.1875 327.054688 62.144531 327.007813 62.125 C 326.976563 62.082031 326.894531 62.042969 326.78125 62 C 326.65625 61.9375 326.527344 61.875 326.398438 61.832031 C 326.398438 61.976563 326.382813 62.105469 326.367188 62.25 C 326.351563 62.394531 326.339844 62.542969 326.316406 62.6875 C 326.382813 62.707031 326.429688 62.730469 326.496094 62.773438 C 326.574219 62.792969 326.621094 62.8125 326.671875 62.792969 C 326.703125 62.773438 326.734375 62.730469 326.765625 62.6875 C 326.78125 62.644531 326.78125 62.582031 326.800781 62.5 C 326.800781 62.480469 326.800781 62.457031 326.800781 62.457031 C 326.847656 62.457031 326.878906 62.480469 326.910156 62.5 C 326.894531 62.667969 326.878906 62.835938 326.847656 63 C 326.816406 63.1875 326.78125 63.355469 326.753906 63.523438 C 326.703125 63.5 326.671875 63.480469 326.640625 63.460938 C 326.65625 63.4375 326.65625 63.417969 326.65625 63.375 C 326.671875 63.3125 326.6875 63.25 326.671875 63.210938 C 326.671875 63.167969 326.65625 63.125 326.65625 63.085938 C 326.640625 63.042969 326.605469 63.023438 326.589844 63 C 326.574219 62.980469 326.527344 62.960938 326.476563 62.917969 C 326.414063 62.898438 326.351563 62.875 326.285156 62.835938 C 326.253906 62.960938 326.238281 63.105469 326.222656 63.230469 C 326.191406 63.355469 326.175781 63.480469 326.140625 63.605469 C 326.128906 63.667969 326.128906 63.730469 326.128906 63.753906 C 326.128906 63.753906 326.128906 63.773438 326.128906 63.792969 C 326.140625 63.816406 326.175781 63.816406 326.222656 63.835938 C 326.300781 63.878906 326.382813 63.917969 326.464844 63.941406 C 326.589844 64.003906 326.6875 64.023438 326.765625 64.023438 C 326.863281 64.003906 326.941406 63.960938 327.007813 63.898438 C 327.070313 63.835938 327.136719 63.753906 327.199219 63.628906 C 327.230469 63.667969 327.265625 63.691406 327.296875 63.730469 C 327.230469 63.835938 327.183594 63.941406 327.136719 64.042969 C 327.070313 64.148438 327.023438 64.273438 326.976563 64.378906 C 326.546875 64.167969 326.09375 63.980469 325.660156 63.792969 C 325.660156 63.753906 325.675781 63.710938 325.691406 63.667969 C 325.714844 63.667969 325.714844 63.667969 325.726563 63.691406 C 325.789063 63.710938 325.820313 63.710938 325.839844 63.710938 C 325.851563 63.691406 325.871094 63.691406 325.902344 63.648438 C 325.902344 63.628906 325.921875 63.585938 325.933594 63.523438 C 325.980469 63.25 326.046875 62.980469 326.078125 62.707031 C 326.128906 62.457031 326.15625 62.1875 326.191406 61.914063 C 326.191406 61.832031 326.191406 61.789063 326.191406 61.769531 C 326.175781 61.726563 326.15625 61.707031 326.140625 61.6875 C 326.128906 61.664063 326.078125 61.644531 325.996094 61.625 C 326.011719 61.582031 325.996094 61.519531 326.011719 61.476563 Z M 328.710938 62.667969 C 328.738281 62.6875 328.753906 62.707031 328.785156 62.707031 C 328.800781 62.835938 328.820313 62.980469 328.820313 63.105469 C 328.839844 63.230469 328.839844 63.375 328.851563 63.5 C 328.800781 63.5 328.769531 63.5 328.738281 63.5 C 328.691406 63.25 328.628906 63.0625 328.53125 62.875 C 328.449219 62.75 328.355469 62.644531 328.242188 62.605469 C 328.175781 62.5625 328.113281 62.5625 328.066406 62.5625 C 328.015625 62.582031 327.96875 62.605469 327.9375 62.667969 C 327.90625 62.707031 327.890625 62.75 327.871094 62.8125 C 327.871094 62.855469 327.871094 62.917969 327.890625 62.980469 C 327.90625 63.042969 327.9375 63.085938 327.96875 63.148438 C 328.003906 63.210938 328.066406 63.273438 328.144531 63.355469 C 328.242188 63.4375 328.339844 63.523438 328.421875 63.628906 C 328.449219 63.648438 328.496094 63.710938 328.5625 63.792969 C 328.628906 63.878906 328.660156 63.941406 328.691406 64.003906 C 328.722656 64.085938 328.738281 64.148438 328.738281 64.230469 C 328.753906 64.316406 328.738281 64.398438 328.722656 64.484375 C 328.691406 64.671875 328.59375 64.796875 328.464844 64.878906 C 328.320313 64.941406 328.175781 64.941406 328.003906 64.878906 C 327.921875 64.835938 327.839844 64.796875 327.777344 64.710938 C 327.714844 64.648438 327.664063 64.546875 327.601563 64.421875 C 327.566406 64.484375 327.535156 64.546875 327.503906 64.609375 C 327.472656 64.609375 327.460938 64.585938 327.425781 64.566406 C 327.441406 64.421875 327.460938 64.273438 327.460938 64.128906 C 327.472656 63.980469 327.488281 63.835938 327.503906 63.691406 C 327.535156 63.710938 327.566406 63.710938 327.601563 63.710938 C 327.617188 63.878906 327.632813 64.042969 327.664063 64.167969 C 327.714844 64.316406 327.761719 64.421875 327.824219 64.503906 C 327.890625 64.585938 327.96875 64.648438 328.050781 64.691406 C 328.144531 64.753906 328.257813 64.753906 328.355469 64.691406 C 328.433594 64.648438 328.480469 64.566406 328.515625 64.460938 C 328.53125 64.355469 328.53125 64.253906 328.496094 64.167969 C 328.449219 64.085938 328.386719 63.980469 328.273438 63.855469 C 328.175781 63.773438 328.097656 63.691406 328.015625 63.605469 C 327.871094 63.480469 327.777344 63.335938 327.730469 63.210938 C 327.679688 63.0625 327.664063 62.9375 327.679688 62.792969 C 327.695313 62.6875 327.730469 62.605469 327.777344 62.519531 C 327.824219 62.457031 327.890625 62.417969 327.96875 62.375 C 328.066406 62.355469 328.160156 62.375 328.273438 62.417969 C 328.355469 62.457031 328.433594 62.519531 328.515625 62.605469 C 328.5625 62.667969 328.609375 62.730469 328.640625 62.8125 C 328.675781 62.773438 328.691406 62.707031 328.710938 62.667969 Z M 330.195313 63.417969 C 330.230469 63.417969 330.246094 63.4375 330.277344 63.4375 C 330.296875 63.585938 330.296875 63.710938 330.308594 63.855469 C 330.324219 63.980469 330.324219 64.105469 330.339844 64.253906 C 330.296875 64.230469 330.261719 64.230469 330.230469 64.230469 C 330.179688 64.003906 330.117188 63.792969 330.019531 63.628906 C 329.941406 63.480469 329.84375 63.375 329.730469 63.335938 C 329.671875 63.292969 329.605469 63.292969 329.554688 63.292969 C 329.507813 63.3125 329.464844 63.335938 329.429688 63.375 C 329.394531 63.417969 329.378906 63.480469 329.378906 63.542969 C 329.378906 63.585938 329.378906 63.648438 329.394531 63.710938 C 329.410156 63.753906 329.429688 63.816406 329.464844 63.878906 C 329.507813 63.941406 329.554688 64.003906 329.652344 64.085938 C 329.730469 64.191406 329.828125 64.273438 329.910156 64.378906 C 329.941406 64.398438 329.988281 64.460938 330.054688 64.546875 C 330.101563 64.609375 330.148438 64.691406 330.179688 64.753906 C 330.195313 64.816406 330.230469 64.898438 330.230469 64.960938 C 330.230469 65.046875 330.230469 65.128906 330.195313 65.214844 C 330.148438 65.402344 330.070313 65.527344 329.925781 65.609375 C 329.78125 65.691406 329.636719 65.691406 329.476563 65.609375 C 329.378906 65.566406 329.316406 65.503906 329.253906 65.441406 C 329.1875 65.359375 329.140625 65.253906 329.074219 65.128906 C 329.046875 65.191406 329.011719 65.253906 328.980469 65.316406 C 328.945313 65.296875 328.929688 65.296875 328.898438 65.277344 C 328.914063 65.128906 328.929688 64.984375 328.945313 64.859375 C 328.964844 64.710938 328.980469 64.566406 328.996094 64.421875 C 329.027344 64.421875 329.058594 64.421875 329.105469 64.441406 C 329.105469 64.609375 329.128906 64.753906 329.15625 64.898438 C 329.203125 65.023438 329.253906 65.128906 329.316406 65.234375 C 329.363281 65.316406 329.445313 65.378906 329.523438 65.421875 C 329.621094 65.484375 329.714844 65.484375 329.828125 65.421875 C 329.910156 65.378906 329.972656 65.296875 329.988281 65.191406 C 330.019531 65.085938 330.003906 64.984375 329.972656 64.898438 C 329.941406 64.835938 329.859375 64.734375 329.753906 64.609375 C 329.671875 64.523438 329.589844 64.441406 329.507813 64.355469 C 329.363281 64.210938 329.265625 64.066406 329.21875 63.917969 C 329.171875 63.792969 329.15625 63.648438 329.171875 63.523438 C 329.1875 63.398438 329.21875 63.3125 329.265625 63.25 C 329.316406 63.167969 329.378906 63.125 329.476563 63.105469 C 329.554688 63.085938 329.652344 63.105469 329.765625 63.148438 C 329.84375 63.1875 329.925781 63.25 329.988281 63.335938 C 330.054688 63.398438 330.101563 63.460938 330.148438 63.542969 C 330.164063 63.5 330.179688 63.460938 330.195313 63.417969 Z M 331.464844 64.042969 C 331.589844 64.128906 331.71875 64.253906 331.816406 64.421875 C 331.945313 64.609375 332.023438 64.796875 332.074219 64.984375 C 332.089844 65.109375 332.105469 65.214844 332.105469 65.339844 C 332.105469 65.441406 332.105469 65.546875 332.074219 65.671875 C 332.039063 65.859375 331.976563 66.007813 331.894531 66.132813 C 331.835938 66.257813 331.734375 66.359375 331.640625 66.445313 C 331.429688 66.589844 331.222656 66.589844 331.015625 66.464844 C 330.757813 66.320313 330.597656 66.070313 330.519531 65.714844 C 330.484375 65.566406 330.46875 65.421875 330.46875 65.277344 C 330.46875 65.128906 330.484375 64.984375 330.519531 64.835938 C 330.550781 64.734375 330.585938 64.628906 330.597656 64.523438 C 330.628906 64.441406 330.679688 64.355469 330.726563 64.273438 C 330.804688 64.128906 330.902344 64.042969 331.046875 64.003906 C 331.175781 63.960938 331.304688 63.980469 331.464844 64.042969 Z M 331.449219 64.230469 C 331.339844 64.167969 331.238281 64.167969 331.144531 64.210938 C 331.0625 64.230469 330.984375 64.316406 330.921875 64.460938 C 330.855469 64.585938 330.804688 64.773438 330.757813 64.984375 C 330.714844 65.191406 330.695313 65.378906 330.714844 65.566406 C 330.714844 65.753906 330.757813 65.902344 330.804688 66.027344 C 330.871094 66.152344 330.949219 66.234375 331.046875 66.296875 C 331.144531 66.359375 331.238281 66.359375 331.339844 66.320313 C 331.449219 66.296875 331.546875 66.214844 331.628906 66.070313 C 331.71875 65.921875 331.800781 65.753906 331.835938 65.546875 C 331.878906 65.339844 331.878906 65.109375 331.847656 64.921875 C 331.835938 64.753906 331.769531 64.609375 331.703125 64.503906 C 331.640625 64.378906 331.558594 64.292969 331.449219 64.230469 Z M 331.449219 64.230469 "/>
</g>
</svg>
